{
  "accessors": [
    {
      "bufferView": 0,
      "byteOffset": 0,
      "componentType": 5126,
      "count": 328,
      "max": [0.281277, 1.41097176, 0.2631183],
      "min": [-0.271580964, 0, -0.2631183],
      "normalized": false,
      "type": "VEC3"
    },
    {
      "bufferView": 1,
      "byteOffset": 0,
      "componentType": 5126,
      "count": 328,
      "normalized": false,
      "type": "VEC3"
    },
    {
      "bufferView": 2,
      "byteOffset": 0,
      "componentType": 5126,
      "count": 328,
      "normalized": false,
      "type": "VEC2"
    },
    {
      "bufferView": 3,
      "byteOffset": 0,
      "componentType": 5125,
      "count": 54,
      "normalized": false,
      "type": "SCALAR"
    },
    {
      "bufferView": 4,
      "byteOffset": 0,
      "componentType": 5125,
      "count": 546,
      "normalized": false,
      "type": "SCALAR"
    }
  ],
  "asset": { "generator": "UniGLTF-2.34.0", "version": "2.0" },
  "buffers": [{ "byteLength": 12896 }],
  "bufferViews": [
    { "buffer": 0, "byteLength": 3936, "byteOffset": 0, "target": 34962 },
    { "buffer": 0, "byteLength": 3936, "byteOffset": 3936, "target": 34962 },
    { "buffer": 0, "byteLength": 2624, "byteOffset": 7872, "target": 34962 },
    { "buffer": 0, "byteLength": 216, "byteOffset": 10496, "target": 34963 },
    { "buffer": 0, "byteLength": 2184, "byteOffset": 10712, "target": 34963 }
  ],
  "extensions": {
    "VRM": {
      "blendShapeMaster": { "blendShapeGroups": [] },
      "exporterVersion": "UniVRM-0.98.0",
      "firstPerson": {
        "firstPersonBoneOffset": { "x": 0, "y": 0, "z": 0 },
        "lookAtHorizontalInner": { "xRange": 90, "yRange": 10 },
        "lookAtHorizontalOuter": { "xRange": 90, "yRange": 10 },
        "lookAtTypeName": "Bone",
        "lookAtVerticalDown": { "xRange": 90, "yRange": 10 },
        "lookAtVerticalUp": { "xRange": 90, "yRange": 10 },
        "meshAnnotations": []
      },
      "humanoid": {
        "armStretch": 0.05,
        "feetSpacing": 0,
        "hasTranslationDoF": false,
        "humanBones": [],
        "legStretch": 0.05,
        "lowerArmTwist": 0.5,
        "lowerLegTwist": 0.5,
        "upperArmTwist": 0.5,
        "upperLegTwist": 0.5
      },
      "materialProperties": [
        {
          "floatProperties": {},
          "keywordMap": {},
          "name": "wood",
          "renderQueue": 2000,
          "shader": "VRM_USE_GLTFSHADER",
          "tagMap": {},
          "textureProperties": {},
          "vectorProperties": {}
        },
        {
          "floatProperties": {},
          "keywordMap": {},
          "name": "foliage",
          "renderQueue": 2000,
          "shader": "VRM_USE_GLTFSHADER",
          "tagMap": {},
          "textureProperties": {},
          "vectorProperties": {}
        }
      ],
      "meta": {
        "allowedUserName": "OnlyAuthor",
        "commercialUssageName": "Disallow",
        "licenseName": "Redistribution_Prohibited",
        "sexualUssageName": "Disallow",
        "violentUssageName": "Disallow"
      },
      "secondaryAnimation": { "boneGroups": [], "colliderGroups": [] },
      "specVersion": "0.0"
    }
  },
  "extensionsUsed": ["KHR_materials_unlit", "KHR_texture_transform", "VRM"],
  "materials": [
    {
      "alphaMode": "OPAQUE",
      "doubleSided": false,
      "name": "wood",
      "pbrMetallicRoughness": {
        "baseColorFactor": [0.876034439, 0.304788262, 0.08615085, 1],
        "metallicFactor": 1,
        "roughnessFactor": 1
      }
    },
    {
      "alphaMode": "OPAQUE",
      "doubleSided": false,
      "name": "foliage",
      "pbrMetallicRoughness": {
        "baseColorFactor": [0.0551075153, 0.690340936, 0.322212666, 1],
        "metallicFactor": 1,
        "roughnessFactor": 1
      }
    }
  ],
  "meshes": [
    {
      "extras": { "targetNames": [] },
      "name": "Mesh tree",
      "primitives": [
        {
          "attributes": { "NORMAL": 1, "POSITION": 0, "TEXCOORD_0": 2 },
          "extras": { "targetNames": [] },
          "indices": 3,
          "material": 0,
          "mode": 4
        },
        {
          "attributes": { "NORMAL": 1, "POSITION": 0, "TEXCOORD_0": 2 },
          "extras": { "targetNames": [] },
          "indices": 4,
          "material": 1,
          "mode": 4
        }
      ]
    }
  ],
  "nodes": [{ "mesh": 0, "name": "tree" }],
  "scene": 0,
  "scenes": [{ "nodes": [0] }],
  "extensionUsed": ["VRM"]
}
